<?xml version="1.0" standalone="no"?>
<!DOCTYPE svg PUBLIC "-//W3C//DTD SVG 20010904//EN"
 "http://www.w3.org/TR/2001/REC-SVG-20010904/DTD/svg10.dtd">
<svg version="1.0" xmlns="http://www.w3.org/2000/svg"
 width="500.000000pt" height="500.000000pt" viewBox="0 0 500.000000 500.000000"
 preserveAspectRatio="xMidYMid meet">

<g transform="translate(0.000000,500.000000) scale(0.100000,-0.100000)"
fill="#000000" stroke="none">
<path d="M1520 3030 c-12 -12 -20 -33 -20 -55 l0 -35 433 0 c478 0 492 -1 583
-63 95 -63 164 -193 164 -307 0 -114 -68 -241 -163 -307 -91 -62 -104 -63
-584 -63 l-433 0 0 -35 c0 -22 8 -43 20 -55 20 -20 33 -20 804 -20 488 0 804
4 837 10 90 17 194 73 259 139 247 253 153 645 -187 782 l-58 24 -817 3 c-810
3 -818 2 -838 -18z"/>
<path d="M1592 2804 c-28 -20 -28 -58 0 -78 19 -14 74 -16 393 -16 403 0 415
2 415 55 0 53 -12 55 -415 55 -319 0 -374 -2 -393 -16z"/>
<path d="M1588 2609 c-21 -12 -24 -59 -6 -77 17 -17 789 -17 806 0 17 17 15
54 -4 72 -13 14 -63 16 -397 16 -241 0 -388 -4 -399 -11z"/>
<path d="M1588 2409 c-21 -12 -24 -59 -6 -77 17 -17 789 -17 806 0 19 19 15
66 -7 78 -27 14 -769 13 -793 -1z"/>
<path d="M1761 1878 c-5 -13 -26 -59 -46 -103 -59 -127 -58 -125 -31 -125 17
0 27 9 36 30 12 29 15 30 75 30 60 0 63 -1 75 -30 9 -21 19 -30 36 -30 l24 0
-26 58 c-79 179 -86 192 -111 192 -15 0 -27 -8 -32 -22z m73 -115 c7 -22 4
-23 -38 -23 -25 0 -46 3 -46 6 0 3 10 28 22 56 l21 50 17 -33 c10 -19 21 -44
24 -56z"/>
<path d="M1960 1776 l0 -126 75 0 c117 0 175 42 175 126 0 36 -6 51 -34 82
-34 37 -35 37 -125 40 l-91 4 0 -126z m174 63 c21 -16 26 -29 26 -64 0 -58
-32 -85 -101 -85 l-49 0 0 85 0 85 49 0 c34 0 56 -6 75 -21z"/>
<path d="M2260 1775 l0 -125 25 0 c23 0 24 2 27 81 l3 82 65 -82 c92 -115 100
-112 100 44 0 117 -1 125 -20 125 -17 0 -19 -8 -22 -82 l-3 -82 -68 82 c-43
52 -75 82 -87 82 -19 0 -20 -7 -20 -125z"/>
<path d="M2593 1880 c-41 -24 -55 -51 -55 -105 0 -76 52 -125 132 -125 23 0
54 7 69 14 77 40 88 153 20 210 -39 33 -117 36 -166 6z m134 -35 c30 -21 39
-74 19 -113 -17 -33 -34 -42 -76 -42 -42 0 -59 9 -76 42 -20 39 -11 92 19 113
12 8 37 15 57 15 20 0 45 -7 57 -15z"/>
<path d="M2820 1880 c0 -17 7 -20 40 -20 l40 0 0 -105 0 -105 25 0 25 0 0 105
0 105 40 0 c33 0 40 3 40 20 0 19 -7 20 -105 20 -98 0 -105 -1 -105 -20z"/>
<path d="M3108 1884 c-54 -29 -75 -117 -42 -174 55 -92 207 -76 243 26 18 52
9 88 -34 131 -29 29 -39 33 -86 33 -30 -1 -66 -7 -81 -16z m142 -52 c28 -35
26 -87 -5 -117 -43 -44 -124 -26 -146 32 -34 89 93 160 151 85z"/>
</g>
</svg>
